<svg xmlns="http://www.w3.org/2000/svg" xmlns:xlink="http://www.w3.org/1999/xlink"  viewBox="0 0 160 160">
	<path d="M80,0C35.8,0,0,35.8,0,80c0,33.6,20.7,62.3,50,74.2c-6.2-6.2-10-14.1-10-22.8c0-9.3,4.3-17.7,11.3-24L30,49l15-21l18,14
		l6.7,55.6c4.2-1.1,8.6-1.7,13.3-1.7c2.5,0,4.9,0.2,7.2,0.5L100,38l22-11l8,23l-18.9,54.6c9.1,6.5,14.9,16.1,14.9,26.8
		c0,6.5-2.1,12.5-5.8,17.7C144,135.3,160,109.5,160,80C160,35.8,124.2,0,80,0z"/>
	<polygon points="53,50.9 47,44.9 43,55 57,101.9 62,99.9 	"/>
	<polygon points="117,43 110,47 100,96.9 106,98.9 121,50 	"/>
	<path fill="currentColor" d="M64.5,120c-0.7,0.1-3.1-0.9-3.5-0.1c1,0,1.4,2.2,1.3,2.5c-0.4,1.3-0.6,3.1-0.3,5c0.5,3.8,2.5,6.7,4.4,6.4s3-3.6,2.5-7.4
		S66.4,119.7,64.5,120z"/>
	<path fill="currentColor" d="M99,118.9c-0.5-0.8-2.3,0-3.1,0c-1.9-0.1-3.6,3-3.8,6.8c-0.2,3.9,1.2,7.1,3.2,7.2c1.9,0.1,3.6-3,3.8-6.8
		c0.1-1.9-0.2-3.6-0.8-4.9C98.2,120.8,98,119,99,118.9z"/>
	<path fill="currentColor" d="M82.1,143.7c2.2-2.2,3.4-4.3,3.4-4.3s-2.6,1.1-5.2,3.3c-3-1.6-5.7-2.2-5.7-2.2s1.6,1.8,4.2,3.6c-2.2,2.2-3.4,4.3-3.4,4.3
		s2.6-1.1,5.2-3.3c3,1.6,5.7,2.2,5.7,2.2S84.6,145.5,82.1,143.7z"/>
</svg>
